<svg width="105" height="95" viewBox="0 0 105 95" fill="none" xmlns="http://www.w3.org/2000/svg">
<path d="M92.4157 0H11.6284C5.21651 0 0 5.21651 0 11.6284V61.7687C0 68.1806 5.21651 73.3971 11.6284 73.3971H41.5223L38.7356 87.492H29.7006C27.6711 87.492 26.026 89.1371 26.026 91.1666C26.026 93.1961 27.6711 94.8412 29.7006 94.8412C32.0221 94.8412 72.0087 94.8412 74.3435 94.8412C76.373 94.8412 78.0181 93.1961 78.0181 91.1666C78.0181 89.1371 76.373 87.492 74.3435 87.492H65.3085L62.5218 73.3971H92.4157C98.8276 73.3971 104.044 68.1806 104.044 61.7687V11.6284C104.044 5.21651 98.8276 0 92.4157 0ZM57.8169 87.4917H46.2269L49.0137 73.3968H55.0298L57.8169 87.4917ZM96.6946 61.7685C96.6946 64.1281 94.7748 66.0477 92.4154 66.0477C89.5814 66.0477 16.5023 66.0477 11.6284 66.0477C9.26873 66.0477 7.34918 64.1281 7.34918 61.7685V11.6284C7.34918 9.26873 9.26873 7.34918 11.6284 7.34918H92.4157C94.7753 7.34918 96.6949 9.26873 96.6949 11.6284V61.7685H96.6946Z" fill="white"/>
</svg>
