<svg width="60" height="60" viewBox="0 0 60 60" fill="none" xmlns="http://www.w3.org/2000/svg">
<path d="M30 0C13.4315 0 0 13.4315 0 30C0 46.5685 13.4315 60 30 60C46.5685 60 60 46.5685 60 30C60 13.4315 46.5685 0 30 0ZM30 53.4782C17.0315 53.4782 6.52175 42.9652 6.52175 30C6.52175 17.0348 17.0315 6.52175 30 6.52175C42.9684 6.52175 53.4782 17.0348 53.4782 30C53.4782 42.9652 42.9684 53.4782 30 53.4782ZM35.8696 17.4457H24.1304V30.7826H16.7935L30 43.2065L43.2065 30.7826H35.8695L35.8696 17.4457Z" fill="black"/>
</svg>
