<svg width="147" height="147" viewBox="0 0 147 147" fill="none" xmlns="http://www.w3.org/2000/svg">
<path d="M73.5 55.125H67.375V49C67.375 47.3755 66.7297 45.8176 65.581 44.669C64.4324 43.5203 62.8745 42.875 61.25 42.875C59.6255 42.875 58.0676 43.5203 56.919 44.669C55.7703 45.8176 55.125 47.3755 55.125 49V55.125H49C47.3755 55.125 45.8176 55.7703 44.669 56.919C43.5203 58.0676 42.875 59.6255 42.875 61.25C42.875 62.8745 43.5203 64.4324 44.669 65.581C45.8176 66.7297 47.3755 67.375 49 67.375H55.125V73.5C55.125 75.1245 55.7703 76.6824 56.919 77.831C58.0676 78.9797 59.6255 79.625 61.25 79.625C62.8745 79.625 64.4324 78.9797 65.581 77.831C66.7297 76.6824 67.375 75.1245 67.375 73.5V67.375H73.5C75.1245 67.375 76.6824 66.7297 77.831 65.581C78.9797 64.4324 79.625 62.8745 79.625 61.25C79.625 59.6255 78.9797 58.0676 77.831 56.919C76.6824 55.7703 75.1245 55.125 73.5 55.125Z" fill="black"/>
<path d="M125.93 112.945L97.3262 84.3414C103.027 75.4387 105.238 64.7436 103.534 54.3102C101.831 43.8768 96.3324 34.4406 88.0955 27.8139C79.8586 21.1872 69.4639 17.8373 58.9077 18.4074C48.3514 18.9775 38.378 23.4275 30.9027 30.9028C23.4274 38.3781 18.9774 48.3515 18.4073 58.9078C17.8372 69.464 21.1871 79.8587 27.8138 88.0956C34.4405 96.3325 43.8766 101.831 54.3101 103.535C64.7435 105.238 75.4386 103.027 84.3412 97.3264L112.945 125.93C114.668 127.651 117.003 128.617 119.437 128.617C121.872 128.617 124.207 127.651 125.93 125.93C126.789 125.081 127.471 124.07 127.937 122.956C128.403 121.841 128.643 120.645 128.643 119.438C128.643 118.23 128.403 117.034 127.937 115.919C127.471 114.805 126.789 113.794 125.93 112.945ZM30.625 61.2501C30.625 55.1931 32.4211 49.272 35.7862 44.2358C39.1514 39.1995 43.9343 35.2742 49.5303 32.9563C55.1263 30.6384 61.284 30.0319 67.2246 31.2136C73.1653 32.3952 78.6222 35.312 82.9051 39.595C87.1881 43.878 90.1049 49.3348 91.2865 55.2755C92.4682 61.2161 91.8617 67.3738 89.5438 72.9698C87.2259 78.5658 83.3006 83.3488 78.2643 86.7139C73.2281 90.079 67.307 91.8751 61.25 91.8751C53.1277 91.8751 45.3382 88.6486 39.5948 82.9053C33.8515 77.162 30.625 69.3724 30.625 61.2501Z" fill="black"/>
</svg>
