<svg width="239" height="239" viewBox="0 0 239 239" fill="none" xmlns="http://www.w3.org/2000/svg">
<path d="M107.55 143.4H11.95V215.1C11.95 221.439 14.468 227.518 18.9501 232C23.4323 236.482 29.5113 239 35.85 239H203.15C209.489 239 215.568 236.482 220.05 232C224.532 227.518 227.05 221.439 227.05 215.1V143.4H131.45V167.3H107.55V143.4ZM107.55 131.45H0V59.75C0 46.605 10.755 35.85 23.9 35.85H71.7V23.9C71.7 17.5613 74.218 11.4823 78.7001 7.00015C83.1823 2.51803 89.2613 0 95.6 0L143.4 0C149.739 0 155.818 2.51803 160.3 7.00015C164.782 11.4823 167.3 17.5613 167.3 23.9V35.85H215.1C221.439 35.85 227.518 38.368 232 42.8501C236.482 47.3323 239 53.4113 239 59.75V131.45H131.45V107.55H107.55V131.45ZM143.4 35.85V23.9H95.6V35.85H143.4Z" fill="white"/>
</svg>
